REM DIRINDEX 1\2,1\3,1\4,1\5
REM DIRNAME cjc005,folder01,folder02,folder03,folder04
TITLE ""
FILE "P1Q_t_0462-0471.mp3" MP3
  TRACK 01 AUDIO
    TITLE "3:cjc005_2288"
    INDEX 01 00:00:00
  TRACK 02 AUDIO
    TITLE "0:"
    INDEX 01 00:01:07
  TRACK 03 AUDIO
    TITLE "4:cjc005_2289"
    INDEX 01 00:01:30
  TRACK 04 AUDIO
    TITLE "0:"
    INDEX 01 00:02:57
  TRACK 05 AUDIO
    TITLE "5:cjc005_2290"
    INDEX 01 00:03:06
  TRACK 06 AUDIO
    TITLE "0:"
    INDEX 01 00:06:67
  TRACK 07 AUDIO
    TITLE "3:cjc005_2291"
    INDEX 01 00:07:49
  TRACK 08 AUDIO
    TITLE "0:"
    INDEX 01 00:08:64
  TRACK 09 AUDIO
    TITLE "4:cjc005_2292"
    INDEX 01 00:09:08
  TRACK 10 AUDIO
    TITLE "0:"
    INDEX 01 00:10:37
  TRACK 11 AUDIO
    TITLE "5:cjc005_2293"
    INDEX 01 00:10:61
  TRACK 12 AUDIO
    TITLE "0:"
    INDEX 01 00:15:07
  TRACK 13 AUDIO
    TITLE "3:cjc005_2294"
    INDEX 01 00:15:62
  TRACK 14 AUDIO
    TITLE "0:"
    INDEX 01 00:17:04
  TRACK 15 AUDIO
    TITLE "4:cjc005_2295"
    INDEX 01 00:17:41
  TRACK 16 AUDIO
    TITLE "0:"
    INDEX 01 00:18:58
  TRACK 17 AUDIO
    TITLE "5:cjc005_2296"
    INDEX 01 00:19:09
  TRACK 18 AUDIO
    TITLE "0:"
    INDEX 01 00:22:70
  TRACK 19 AUDIO
    TITLE "3:cjc005_2297"
    INDEX 01 00:23:55
  TRACK 20 AUDIO
    TITLE "0:"
    INDEX 01 00:25:03
  TRACK 21 AUDIO
    TITLE "4:cjc005_2298"
    INDEX 01 00:25:25
  TRACK 22 AUDIO
    TITLE "0:"
    INDEX 01 00:26:60
  TRACK 23 AUDIO
    TITLE "5:cjc005_2299"
    INDEX 01 00:27:06
  TRACK 24 AUDIO
    TITLE "0:"
    INDEX 01 00:30:61
  TRACK 25 AUDIO
    TITLE "3:cjc005_2300"
    INDEX 01 00:31:41
  TRACK 26 AUDIO
    TITLE "0:"
    INDEX 01 00:32:58
  TRACK 27 AUDIO
    TITLE "4:cjc005_2301"
    INDEX 01 00:33:11
  TRACK 28 AUDIO
    TITLE "0:"
    INDEX 01 00:34:49
  TRACK 29 AUDIO
    TITLE "5:cjc005_2302"
    INDEX 01 00:34:71
  TRACK 30 AUDIO
    TITLE "0:"
    INDEX 01 00:39:07
  TRACK 31 AUDIO
    TITLE "3:cjc005_2303"
    INDEX 01 00:39:60
  TRACK 32 AUDIO
    TITLE "0:"
    INDEX 01 00:40:73
  TRACK 33 AUDIO
    TITLE "4:cjc005_2304"
    INDEX 01 00:41:28
  TRACK 34 AUDIO
    TITLE "0:"
    INDEX 01 00:42:45
  TRACK 35 AUDIO
    TITLE "5:cjc005_2305"
    INDEX 01 00:42:74
  TRACK 36 AUDIO
    TITLE "0:"
    INDEX 01 00:47:01
  TRACK 37 AUDIO
    TITLE "3:cjc005_2306"
    INDEX 01 00:47:52
  TRACK 38 AUDIO
    TITLE "0:"
    INDEX 01 00:48:59
  TRACK 39 AUDIO
    TITLE "4:cjc005_2307"
    INDEX 01 00:49:08
  TRACK 40 AUDIO
    TITLE "0:"
    INDEX 01 00:50:41
  TRACK 41 AUDIO
    TITLE "5:cjc005_2308"
    INDEX 01 00:50:68
  TRACK 42 AUDIO
    TITLE "0:"
    INDEX 01 00:54:21
  TRACK 43 AUDIO
    TITLE "3:cjc005_2309"
    INDEX 01 00:55:01
  TRACK 44 AUDIO
    TITLE "0:"
    INDEX 01 00:56:18
  TRACK 45 AUDIO
    TITLE "4:cjc005_2310"
    INDEX 01 00:56:49
  TRACK 46 AUDIO
    TITLE "0:"
    INDEX 01 00:57:50
  TRACK 47 AUDIO
    TITLE "5:cjc005_2311"
    INDEX 01 00:58:05
  TRACK 48 AUDIO
    TITLE "0:"
    INDEX 01 01:01:38
  TRACK 49 AUDIO
    TITLE "3:cjc005_2312"
    INDEX 01 01:02:12
  TRACK 50 AUDIO
    TITLE "0:"
    INDEX 01 01:03:22
  TRACK 51 AUDIO
    TITLE "4:cjc005_2313"
    INDEX 01 01:03:47
  TRACK 52 AUDIO
    TITLE "0:"
    INDEX 01 01:04:70
  TRACK 53 AUDIO
    TITLE "5:cjc005_2314"
    INDEX 01 01:05:19
  TRACK 54 AUDIO
    TITLE "0:"
    INDEX 01 01:08:44
  TRACK 55 AUDIO
    TITLE "3:cjc005_2315"
    INDEX 01 01:09:18
  TRACK 56 AUDIO
    TITLE "0:"
    INDEX 01 01:10:39
  TRACK 57 AUDIO
    TITLE "4:cjc005_2316"
    INDEX 01 01:10:67
  TRACK 58 AUDIO
    TITLE "0:"
    INDEX 01 01:12:13
  TRACK 59 AUDIO
    TITLE "5:cjc005_2317"
    INDEX 01 01:12:34
  TRACK 60 AUDIO
    TITLE "0:"
    INDEX 01 01:17:24
